<mxfile host="app.diagrams.net" modified="2024-05-15T10:47:36.575Z" agent="Mozilla/5.0 (Windows NT 10.0; Win64; x64) AppleWebKit/537.36 (KHTML, like Gecko) Chrome/124.0.0.0 Safari/537.36" version="24.3.1" etag="i_CdtcWMBWJkLVpaMTMx" type="github">
  <diagram name="第 1 页" id="K5K2oIB2UW_f6_v_QB0F">
    <mxGraphModel>
      <root>
        <mxCell id="0" />
        <mxCell id="1" parent="0" />
      </root>
    </mxGraphModel>
  </diagram>
</mxfile>
